<svg xmlns="http://www.w3.org/2000/svg" xmlns:xlink="http://www.w3.org/1999/xlink" xmlns:svgjs="http://svgjs.com/svgjs" id="SvgjsSvg1001" version="1.1" viewBox="0.16 98.8 242.45 86.29"><defs id="SvgjsDefs1002"/><g id="SvgjsG1008"><svg xmlns="http://www.w3.org/2000/svg" version="1.0" viewBox="0 0 356 112" width="288" height="288"><g transform="matrix(.1 0 0 -.1 0 112)"><path d="M679 1097c-46-31-96-99-110-150-14-53-6-137 17-176 10-16 32-38 50-47 28-15 36-16 64-4 103 43 148 292 68 377-27 29-46 29-89 0zM295 1076c-57-57-58-186-3-295 55-111 118-133 178-64 27 30 30 40 30 103 0 95-29 171-90 233-53 53-79 59-115 23zM1264 898c-22-10-27-35-17-86 3-17 9-22 21-18 14 5 14 3-2-9-10-8-23-16-29-18-6-2-6-11 2-25 7-12 9-27 5-33-3-6-3-26 1-45 6-34 8-35 38-29 55 12 59 20 55 116l-3 87 95-4c125-5 150 1 150 32 0 15-6 24-15 24-8 0-15 5-15 10 0 14-54 12-68-2-10-10-17-10-32 0-23 14-70 16-70 3 0-5-9-11-20-14-11-3-20-1-20 5 0 5-9 6-20 3-11-4-20-2-20 4 0 13-8 13-36-1zM1653 893l-33-4 0-77c-1-42-7-93-14-113l-12-35 42-16 42-15 11 43c6 24 11 68 11 99 0 41 3 56 13 53 8-3 13-34 15-96l3-92 39 0 40 0 0 95c0 78 3 95 15 95 12 0 15-15 15-74 0-41 4-86 10-100 9-25 9-25 50-9 39 16 40 18 33 47-4 17-7 70-6 119l2 87-122-2c-67 0-137-3-154-5zM1970 764l0-137 53 7c28 3 100 6 160 6l107 0 0 30 0 30-127 2c-71 1-110 3-88 5 22 3 44 9 50 14 12 12 45 12 45-1 0-5 18-10 40-10 22 0 40 5 40 10 0 6 7 10 15 10 9 0 15 9 15 25 0 23-3 24-77 28l-78 3 78 2c66 2 77 5 77 20 0 9 3 34 6 55l7 37-162 0-161 0 0-136zm193 79l-103-4-1-32c0-18-4-41-9-52-6-14-9-4-9 38l-1 57 113-2 112-2-102-3zM47 850c-28-18-50-69-44-107 15-91 110-183 189-183 31 0 40 5 53 30 21 41 19 59-15 126-51 103-134 163-183 134z" fill="#003366" class="color000 svgShape"/><path d="M1350 727l0-93 115 0 115 1 0 92 0 93-115 0-115 0 0-93zm87 37c-3-3-12-4-19-1-8 3-5 6 6 6 11 1 17-2 13-5zm80 0c-3-3-12-4-19-1-8 3-5 6 6 6 11 1 17-2 13-5zm-77-64c0-5-7-10-16-10-8 0-12 5-9 10 3 6 10 10 16 10 5 0 9-4 9-10zm80 0c0-5-7-10-15-10-8 0-15 5-15 10 0 6 7 10 15 10 8 0 15-4 15-10zM915 798c-59-32-105-96-105-146 0-60 54-65 152-16 109 55 119 174 15 174-23 0-51-6-62-12zM610 585c-17-25-41-50-52-56-20-11-27-7-68 40-35 40-51 51-75 51-88 0-181-136-143-209 8-14 27-28 45-33 34-9 63-41 63-69 0-10-16-27-35-39-93-58-86-130 19-191 65-37 78-36 111 4 14 17 33 40 41 50 24 30 63 21 101-23 29-33 41-40 72-40 61 0 112 46 131 119 13 51-1 81-51 106-34 18-51 52-38 76 5 9 24 26 43 37 48 28 63 78 40 128-24 50-87 94-135 94-34 0-41-5-69-45zM2106 379c-14-11-26-29-26-40 0-11-7-22-15-25-9-4-15-19-15-41 0-20 4-32 10-28 6 4 10-20 10-64l0-71 46 0 46 0-3 68c-4 63-3 67 19 70 17 3 22 10 22 33 0 26-3 29-30 29-16 0-30 5-30 11 0 7 10 9 24 7 20-4 25 0 30 25 3 16 6 33 6 38 0 17-68 9-94-12zM1334 370c-48-15-76-52-82-110-6-70 12-108 62-131 72-33 165-22 214 23 29 28 28 31-11 50-30 15-34 14-56-3-27-22-79-25-104-7-24 18-31 69-13 93 18 25 95 28 122 4 17-14 23-15 52-3 36 16 39 25 15 46-44 38-139 56-199 38zM2325 373c-57-16-95-72-95-141 0-98 123-152 240-106 34 14 69 49 58 59-14 12-68 34-68 27 0-13-47-32-80-32-61 0-86 72-38 113 26 22 69 22 99-2 22-17 27-18 62-4 37 15 37 16 20 35-10 11-30 26-45 34-29 15-122 26-153 17zM2847 319c-32-32-35-76-4-71 14 2 17-5 17-48 0-66 23-90 85-90 43 0 45 1 45 30 0 23-4 30-20 30-13 0-24 10-30 25-14 36-3 55 32 55 26 0 29 3 26 28-2 22-9 28-38 32-26 4-31 7-17 12 32 13 18 28-25 27-33-1-50-8-71-30zM1590 211l0-101 40 0 40 0 0 55c0 44 4 56 20 65 12 6 29 8 39 5 14-4 20 1 25 26 3 17 6 35 6 40 0 18-42 8-66-16-30-31-32-31-36-2-2 17-11 23-35 25l-33 3 0-100zM1855 301c-11-5-28-17-38-28-16-19-16-20 10-32l26-12-31-19c-39-24-43-61-10-84 33-23 75-20 103 9 14 13 25 20 25 15 0-18 33-40 61-40l29 0-6 73c-8 92-30 118-101 123-26 2-57 0-68-5zm85-60c0-11-25-21-53-21-22 1-22 1-3 15 22 17 56 20 56 6zm0-51c0-13-46-24-67-15-16 7-15 9 7 15 36 11 60 11 60 0zM2613 289c-18-12-33-23-33-26 0-3 10-13 23-24 12-10 17-18 10-19-21 0-43-31-43-59 0-51 85-70 123-27l21 24 11-22c7-15 22-22 48-24l38-3-6 53c-10 84-24 117-55 133-41 21-99 18-137-6zm102-48c6-11-62-27-72-17-6 6 33 24 54 25 6 1 14-3 18-8zm-9-56c-22-17-66-20-66-6 0 11 23 18 60 20 24 0 24 0 6-14z" fill="#003366" class="color000 svgShape"/></g></svg></g></svg>
